<!-- Created with Inkscape (http://www.inkscape.org/) -->
<svg xmlns:rdf="http://www.w3.org/1999/02/22-rdf-syntax-ns#" xmlns="http://www.w3.org/2000/svg" xmlns:osb="http://www.openswatchbook.org/uri/2009/osb" height="16px" width="16px" version="1.1" xmlns:cc="http://creativecommons.org/ns#" xmlns:dc="http://purl.org/dc/elements/1.1/">
 <defs>
  <filter id="filter5366">
   <feGaussianBlur stdDeviation="0.074301345"/>
  </filter>
 </defs>
 <metadata>
  <rdf:RDF>
   <cc:Work rdf:about="">
    <dc:format>image/svg+xml</dc:format>
    <dc:type rdf:resource="http://purl.org/dc/dcmitype/StillImage"/>
    <dc:title/>
   </cc:Work>
  </rdf:RDF>
 </metadata>
 <path d="m14.47,5.1264c-0.21372,1.0973-1.4376,1.2131-1.8843,0.06371-0.097-0.628-0.284-0.9572-0.499-1.3381-0.215-0.3808-0.5-0.7031-0.854-0.9668-0.355-0.2636-0.769-0.4671-1.2407-0.6103-0.472-0.1432-0.9814-0.2149-1.5283-0.2149-0.7487,0-1.4241,0.1303-2.0264,0.3907-0.6022,0.2604-1.1149,0.6445-1.538,1.1523-0.4232,0.5078-0.7487,1.1328-0.9766,1.875s-0.3418,1.5951-0.3418,2.5586c-0.000003,0.95704,0.11393,1.8083,0.3418,2.5537,0.22786,0.74545,0.55338,1.3721,0.97656,1.8799,0.42317,0.50782,0.93261,0.89518,1.5283,1.1621,0.5957,0.26693,1.2614,0.40039,1.9971,0.40039,0.57291,0.000002,1.097-0.07161,1.5723-0.21484,0.47525-0.14323,0.88703-0.35482,1.2354-0.63476,0.3483-0.27995,0.62824-0.62337,0.83984-1.0303,0.21158-0.4069,0.40387-0.96958,0.54502-1.4332,0.36991-0.82582,1.4198-1.0256,1.8524,0.03185,0.15135,0.59664-0.2702,1.4893-0.5957,2.1045-0.32553,0.61524-0.75197,1.1344-1.2793,1.5576-0.52736,0.42318-1.1442,0.74544-1.8506,0.9668-0.70639,0.22135-1.4697,0.33203-2.29,0.33203-1.0547,0.000004-2.0085-0.18066-2.8613-0.54199-0.8527-0.362-1.5786-0.876-2.1775-1.544-0.599-0.667-1.0596-1.473-1.3819-2.417-0.3222-0.944-0.4834-2.0015-0.4834-3.1734s0.1628-2.2298,0.4883-3.1738,0.7878-1.7513,1.3867-2.4219c0.599-0.6706,1.3249-1.1865,2.1778-1.5479,0.8528-0.36131,1.8034-0.54198,2.8515-0.54199,0.78124,0.00001511,1.5218,0.11395,2.2217,0.3418,0.69986,0.22788,1.32,0.55014,1.8604,0.9668,0.54035,0.41668,0.9798,0.91961,1.3184,1.5088,0.33853,0.5892,0.54361,1.2419,0.61523,1.958z" fill="#800000"/>
 <path filter="url(#filter5366)" fill="#fcca00" d="M0.95673,0.20114,7.8083,4.8692,6.015,4.6769,11.213,9.4301,10.058,9.5246,15.29,15.299,7.0797,8.9001,8.074,8.8012,2.9123,3.8272,4.162,3.9228,0.73266,0.1363z"/>
</svg>
